<svg width="24" height="24" xmlns="http://www.w3.org/2000/svg">

 <g>
  <title>background</title>
  <rect fill="none" id="canvas_background" height="514" width="514" y="-1" x="-1"/>
 </g>
 <g>
  <title>Layer 1</title>
  <path id="svg_1" fill="none" d="m-0.07112,0l24,0l0,24l-24,0l0,-24zm0,24l24,0l0,24l-24,0l0,-24zm0,0l24,0l0,24l-24,0l0,-24zm0,0l24,0l0,24l-24,0l0,-24z"/>
  <path stroke="null" id="svg_2" d="m12.24748,14.811936c1.965555,0 3.560788,1.636306 3.560788,3.652469c0,0.474821 -0.09258,0.920422 -0.256377,1.336804l2.0795,2.133042c1.075358,-0.920422 1.922826,-2.111127 2.442701,-3.469846c-1.232033,-3.206868 -4.272946,-5.478704 -7.833735,-5.478704c-0.997021,0 -1.951312,0.182623 -2.834388,0.511346l1.538261,1.577867c0.40593,-0.168014 0.840346,-0.262978 1.303249,-0.262978zm-7.121577,-1.994248l1.62372,1.665526l0.327593,0.336027c-1.182182,0.942337 -2.107987,2.198786 -2.66347,3.645164c1.232033,3.206868 4.272946,5.478704 7.833735,5.478704c1.103844,0 2.157838,-0.219148 3.119251,-0.613615l0.299106,0.306807l2.086622,2.133042l0.90444,-0.927727l-12.626556,-12.951655l-0.90444,0.927727zm3.938232,4.039631l1.103844,1.132265c-0.035608,0.153404 -0.056973,0.314112 -0.056973,0.474821c0,1.21262 0.954291,2.191481 2.136473,2.191481c0.156675,0 0.313349,-0.021915 0.462902,-0.05844l1.103844,1.132265c-0.477146,0.241063 -1.004142,0.387162 -1.566747,0.387162c-1.965555,0 -3.560788,-1.636306 -3.560788,-3.652469c0,-0.57709 0.142432,-1.117656 0.377444,-1.607086zm3.0694,-0.569785l2.243297,2.301055l0.014243,-0.116879c0,-1.21262 -0.954291,-2.191481 -2.136473,-2.191481l-0.121067,0.007305z"/>
 </g>
</svg>