<svg width="24" height="24" xmlns="http://www.w3.org/2000/svg">

 <g>
  <title>background</title>
  <rect fill="none" id="canvas_background" height="514" width="514" y="-1" x="-1"/>
 </g>
 <g>
  <title>Layer 1</title>
  <path stroke="null" id="svg_1" fill="none" d="m1.937498,9.249998l19.625003,0l0,12.875002l-19.625003,0l0,-12.875002z"/>
  <path stroke="null" id="svg_2" d="m11.9375,13.374997c-3.721591,0 -7.14983,2.526084 -8.437501,5.562501c1.287671,3.036418 4.46591,5.187501 8.187501,5.187501s6.89983,-2.151083 8.1875,-5.187501c-1.28767,-3.036417 -4.215909,-5.562501 -7.9375,-5.562501zm-0.25,9.020835c-2.054319,0 -3.721591,-1.549333 -3.721591,-3.458334s1.667272,-3.458334 3.721591,-3.458334s3.721591,1.549334 3.721591,3.458334s-1.667273,3.458334 -3.721591,3.458334zm0,-5.533334c-1.235568,0 -2.232955,0.926833 -2.232955,2.075s0.997387,2.075001 2.232955,2.075001s2.232955,-0.926834 2.232955,-2.075001s-0.997387,-2.075 -2.232955,-2.075z"/>
 </g>
</svg>