<svg width="24" height="24" xmlns="http://www.w3.org/2000/svg">

 <g>
  <title>background</title>
  <rect fill="none" id="canvas_background" height="514" width="514" y="-1" x="-1"/>
 </g>
 <g>
  <title>Layer 1</title>
  <path id="svg_1" fill="none" d="m0,0l24,0l0,24l-24,0l0,-24zm0,24l24,0l0,24l-24,0l0,-24zm0,0l24,0l0,24l-24,0l0,-24zm0,0l24,0l0,24l-24,0l0,-24z"/>
  <path stroke="null" id="svg_2" d="m12.140752,15.148818c1.938776,0 3.512276,1.585998 3.512276,3.540175c0,0.460223 -0.091319,0.892124 -0.252884,1.295704l2.051169,2.067462c1.060707,-0.892124 1.896629,-2.046221 2.409421,-3.363166c-1.215247,-3.108274 -4.214731,-5.310262 -7.727007,-5.310262c-0.983437,0 -1.924727,0.177009 -2.795772,0.495624l1.517303,1.529356c0.400399,-0.162848 0.828897,-0.254893 1.285493,-0.254893zm-7.024552,-1.932936l1.601598,1.61432l0.323129,0.325696c-1.166076,0.913365 -2.079267,2.131185 -2.627182,3.533095c1.215247,3.108274 4.214731,5.310262 7.727007,5.310262c1.088806,0 2.128439,-0.21241 3.076754,-0.594749l0.295031,0.297375l2.058194,2.067462l0.892118,-0.899204l-12.45453,-12.55346l-0.892118,0.899204zm3.884577,3.915434l1.088806,1.097454c-0.035123,0.148687 -0.056196,0.304455 -0.056196,0.460223c0,1.175338 0.94129,2.124105 2.107365,2.124105c0.15454,0 0.30908,-0.021241 0.456596,-0.056643l1.088806,1.097454c-0.470645,0.233652 -0.990462,0.375259 -1.545401,0.375259c-1.938776,0 -3.512276,-1.585998 -3.512276,-3.540175c0,-0.559348 0.140491,-1.083294 0.372301,-1.557677zm3.027582,-0.552267l2.212734,2.23031l0.014049,-0.113286c0,-1.175338 -0.94129,-2.124105 -2.107365,-2.124105l-0.119417,0.00708z"/>
 </g>
</svg>